<svg id="Layer_1" data-name="Layer 1" xmlns="http://www.w3.org/2000/svg" viewBox="0 0 441 441"><defs><style>.cls-1,.cls-2{fill:#fff}.cls-2{font-size:150px;font-family:Oswald-Bold,Oswald;font-weight:700}.cls-3{letter-spacing:-.01em}</style></defs><title>logo</title><path class="cls-1" d="M636 292a178.93 178.93 0 1 1-69.87 14.1A178.37 178.37 0 0 1 636 292m0-3a182.5 182.5 0 1 0 182.5 182.5A182.5 182.5 0 0 0 636 289z" transform="translate(-415.5 -251)"/><path class="cls-1" d="M636 257a213.77 213.77 0 1 1-83.48 16.85A213.11 213.11 0 0 1 636 257m0-6c-121.78 0-220.5 98.72-220.5 220.5S514.22 692 636 692s220.5-98.72 220.5-220.5S757.78 251 636 251z" transform="translate(-415.5 -251)"/><text class="cls-2" transform="translate(147.32 200.05)"><tspan class="cls-3">D</tspan><tspan x="86.7" y="0">J</tspan><tspan x="-39.75" y="145">CEE</tspan></text></svg>